<svg xmlns="http://www.w3.org/2000/svg" width="226.462" height="138.643" viewBox="0 0 226.462 138.643">
    <defs>
        <style>.a{fill:#ffffff;}</style>
    </defs>
    <g transform="translate(-355.916 -56.741)">
        <path class="a"
              d="M410.082,64.174c11.946-4.425,25.736-2.581,37.387,1.771a50.184,50.184,0,0,1,26.989,23.67C469.3,76.857,460.447,67.123,448.649,62.7S422.4,57.98,410.082,64.174Z"
              transform="translate(39.858 1.988)"/>
        <rect class="a" width="6.858" height="26.399" transform="translate(442.198 142.556)"/>
        <path class="a"
              d="M409.127,108.907a14.071,14.071,0,0,0-7.891-2.654c-.958,0-1.916-.075-3.022-.075h-9.882v26.4h9.882c1.106,0,2.064,0,3.022-.075a12.508,12.508,0,0,0,6.858-1.918,12.941,12.941,0,0,0,6.2-11.208A12.693,12.693,0,0,0,409.127,108.907Zm-7.891,18.214a8.218,8.218,0,0,1-1.4.148H394.97V111.563h4.866a8.545,8.545,0,0,1,1.4.073c3.762.59,6.268,3.612,6.268,7.742S405,126.531,401.236,127.121Z"
              transform="translate(23.853 36.378)"/>
        <path class="a"
              d="M393.581,127.637H382.225v-6.268h10.545v-4.94H382.225v-5.309h10.987v-4.941H375.588v26.4h17.992Z"
              transform="translate(14.476 36.378)"/>
        <path class="a"
              d="M370.364,116.871l-8.406-10.692h-5.825v26.4h6.489v-16.3l7.743,9.66,7.89-9.66v16.3h6.489v-26.4h-5.825Z"
              transform="translate(0.159 36.378)"/>
        <path class="a"
              d="M485.291,124.982l3.394,7.6h7.447l-4.2-9a6.416,6.416,0,0,0-3.1-3.392c3.171-1.4,4.572-3.466,4.572-6.343,0-5.235-3.392-7.594-10.248-7.669h-10.03v26.4h6.636V121.886c.3,0,.517-.075.812-.075a6.5,6.5,0,0,1,2.581.443A4.9,4.9,0,0,1,485.291,124.982Zm-2.359-7.964H479.76V110.9h3.394c2.211.075,3.392,1.18,3.392,3.024,0,2.064-1.107,3.022-3.392,3.1Z"
              transform="translate(86.247 36.378)"/>
        <path class="a"
              d="M451.97,109.684a14.105,14.105,0,0,0-10.177-3.76,14.282,14.282,0,0,0-10.248,3.76,13.887,13.887,0,0,0,0,19.763,15.518,15.518,0,0,0,20.426,0,12.535,12.535,0,0,0,3.612-5.753,14.481,14.481,0,0,0,0-8.185A13.143,13.143,0,0,0,451.97,109.684Zm-10.177,17.992c-4.423,0-7.594-3.317-7.594-8.112,0-4.718,3.171-8.037,7.594-8.037,4.352,0,7.523,3.319,7.523,8.037C449.316,124.359,446.145,127.676,441.793,127.676Z"
              transform="translate(52.612 36.191)"/>
        <path class="a"
              d="M466.931,121.369h10.545v-4.94H466.931v-5.309h10.987v-4.941H460.295v26.4h17.992v-4.941H466.931Z"
              transform="translate(76.807 36.378)"/>
        <path class="a" d="M456.871,121.59l-6.489-15.412H443.3l.59,1.254,11.43,25.44h2.8l12.831-26.694H463.8Z"
              transform="translate(64.303 36.378)"/>
        <path class="a"
              d="M418.651,119.564c0-5.013,3.244-8.11,8.627-8.11a16.6,16.6,0,0,1,8.776,2.8v-6.121a20.212,20.212,0,0,0-9.219-2.211c-9.217,0-14.968,5.678-14.968,13.64a13.612,13.612,0,0,0,4.055,9.955,14.481,14.481,0,0,0,10.25,3.762,19.24,19.24,0,0,0,10.1-2.729v-6.121a17.313,17.313,0,0,1-9.587,3.319C421.747,127.751,418.651,124.506,418.651,119.564Z"
              transform="translate(41.171 36.191)"/>
        <path class="a"
              d="M423.12,62.844a53.881,53.881,0,0,1,37.091-.885c-12.389-5.973-26.694-6.931-38.419-2.286S401.514,74.2,396.574,87.1A50.74,50.74,0,0,1,423.12,62.844Z"
              transform="translate(29.918 0)"/>
        <path class="a"
              d="M432.871,62.357c-11.578.516-22.122,6.563-30.308,16.3a46.545,46.545,0,0,1,30.455-13.125c11.429-.517,24.113,1.769,33.257,9.07C457.279,65.676,444.522,61.842,432.871,62.357Z"
              transform="translate(34.325 4.099)"/>
        <path class="a" d="M417.389,80.373a6.268,6.268,0,1,0,6.268-6.268A6.311,6.311,0,0,0,417.389,80.373Z"
              transform="translate(45.235 12.777)"/>
        <path class="a"
              d="M495.13,78.566c-15.192,0-40.631,1.474-52.061,12.9-11.429-11.431-36.869-12.9-52.06-12.9C406.125,80.777,432.3,89.4,432.3,108.431h21.531C453.834,89.4,480.013,80.777,495.13,78.566Z"
              transform="translate(25.823 16.06)"/>
        <path class="a"
              d="M360.936,134.342a22.753,22.753,0,0,1-2.17-1.47,2.007,2.007,0,0,1-.79-1.493,1.569,1.569,0,0,1,.625-1.272,2.54,2.54,0,0,1,1.654-.507,5.72,5.72,0,0,1,3.486,1.535V128.7a6.461,6.461,0,0,0-3.4-1.029,4.536,4.536,0,0,0-3.2,1.128,3.718,3.718,0,0,0-1.227,2.859,3.624,3.624,0,0,0,.965,2.543,16.97,16.97,0,0,0,2.871,2.126,11.14,11.14,0,0,1,1.863,1.359,2.112,2.112,0,0,1,.635,1.512,1.718,1.718,0,0,1-.635,1.413,2.708,2.708,0,0,1-1.753.516,5.377,5.377,0,0,1-3.923-2.191v2.828a6.183,6.183,0,0,0,4.055,1.423,4.559,4.559,0,0,0,3.2-1.12,3.665,3.665,0,0,0,1.227-2.833,4.438,4.438,0,0,0-.92-2.875A11.073,11.073,0,0,0,360.936,134.342Z"
              transform="translate(0 52.195)"/>
        <path class="a"
              d="M390.143,127.836h-4.668v14.97H387.6v-6.443h2.541a5.434,5.434,0,0,0,3.673-1.128,4.392,4.392,0,0,0-.012-6.258A5.417,5.417,0,0,0,390.143,127.836Zm2.029,6.053a3.718,3.718,0,0,1-2.248.545H387.6v-4.668h2.322a3.718,3.718,0,0,1,2.248.545,2.6,2.6,0,0,1,0,3.578Z"
              transform="translate(21.751 52.315)"/>
        <path class="a"
              d="M423.113,127.7a7.832,7.832,0,0,0-5.633,2.257,7.248,7.248,0,0,0-2.345,5.414,7.42,7.42,0,0,0,2.335,5.534,7.8,7.8,0,0,0,5.643,2.269,7.9,7.9,0,0,0,5.655-2.236,7.229,7.229,0,0,0,2.345-5.435,7.446,7.446,0,0,0-2.324-5.523A7.792,7.792,0,0,0,423.113,127.7Zm4.055,11.769a5.52,5.52,0,0,1-4.055,1.666,5.463,5.463,0,0,1-4.044-1.677,5.527,5.527,0,0,1-1.654-4.022,5.449,5.449,0,0,1,1.7-4.065,5.539,5.539,0,0,1,4-1.656,5.454,5.454,0,0,1,4.055,1.71,5.562,5.562,0,0,1,1.665,4.012A5.487,5.487,0,0,1,427.168,139.467Z"
              transform="translate(43.576 52.213)"/>
        <path class="a"
              d="M455.3,135.661a3.6,3.6,0,0,0,2.807-3.725,3.807,3.807,0,0,0-1.229-3.026,5.166,5.166,0,0,0-3.506-1.075h-4.383v14.97h2.126v-6.685h.639a2.966,2.966,0,0,1,2,.724,11.333,11.333,0,0,1,1.585,2.038l2.566,3.923h2.586l-3.638-5.478A4.952,4.952,0,0,0,455.3,135.661Zm-2.4-1.337h-1.783v-4.668H452.9a3.838,3.838,0,0,1,2.267.536,2.07,2.07,0,0,1,.727,1.786Q455.89,134.325,452.9,134.325Z"
              transform="translate(68.486 52.315)"/>
        <path class="a" d="M478.583,129.766h5.5v13.041h2.126V129.766h5.5v-1.929H478.583Z"
              transform="translate(90.264 52.315)"/>
    </g>
</svg>
