<svg version="1.1" id="layer" xmlns="http://www.w3.org/2000/svg" xmlns:xlink="http://www.w3.org/1999/xlink" x="0px" y="0px"
	 viewBox="0 200 652 250" style="enable-background:new 0 200 652 652;" xml:space="preserve">
<style type="text/css">
	.st0{fill:#ffffffff;}
	.st1{fill:#ffffffff;}
</style>
<path class="st0" d="M49,303.3L49,303.3c0,4.2,3.3,7.5,7.5,7.5s7.5-3.5,7.5-7.5v-18c0-4.2-3.3-7.5-7.5-7.5s-7.5,3.3-7.5,7.5V303.3z"
	/>
<path class="st0" d="M56.4,330.1c19.8,0,35.8-16,35.8-35.8s-16-35.8-35.8-35.8s-35.8,16-35.8,35.8S36.7,330.1,56.4,330.1
	 M56.4,270.4c13.2,0,23.9,10.8,23.9,23.9s-10.8,23.9-23.9,23.9s-23.9-10.8-23.9-23.9C32.5,281.2,43.3,270.4,56.4,270.4"/>
<path class="st1" d="M330.6,296.3c0.4-2.6,1.8-5,4-6.8c2.2-1.8,4.6-2.9,7.5-2.9c1.3,0,2.6,0.2,3.7,0.7c1.1,0.4,2,1.1,2.9,2
	c0.7,0.9,1.3,2,1.5,3.1c0.2,1.1,0.2,2.4,0,3.7c-0.2,1.3-0.7,2.6-1.3,3.7c-0.7,1.1-1.5,2.2-2.6,3.1c-1.1,0.9-2.2,1.5-3.5,2.2
	c-1.3,0.4-2.6,0.7-4,0.7c-1.3,0-2.6-0.2-3.7-0.7c-1.1-0.4-2-1.3-2.6-2.2c-0.7-0.9-1.3-2-1.5-3.1
	C330.4,298.7,330.4,297.6,330.6,296.3"/>
<polygon class="st1" points="99,366.3 111.8,294.6 135.9,294.6 145.1,342.6 172.1,294.6 195,294.6 182.2,366.3 164.7,366.3
	173.2,317.8 147.8,366.3 134.2,366.3 125.4,317.8 116.8,366.3 "/>
<path class="st1" d="M195.8,344.4l5.7-32.1h17.1l-4.8,27.7c-0.7,4-0.7,7,0.4,9.4c0.9,2.4,3.1,3.7,6.8,3.7c3.5,0,6.4-1.3,8.6-3.7
	s3.5-5.7,4.4-9.9l4.8-27H256l-9.4,54h-17.1l1.3-7.7c-2,2.9-4.6,5-7.9,6.6c-3.3,1.5-7,2.4-11.4,2.4c-3.7,0-6.8-0.7-9-1.8
	c-2.2-1.1-4-2.6-5-4.4c-1.3-2.2-2-4.4-2.2-7.2C194.7,351.6,195.2,348.3,195.8,344.4"/>
<polygon class="st1" points="256,366.3 268.7,294.6 285.9,294.6 273.1,366.3 "/>
<path class="st1" d="M292,312.3l3.3-18h17.1l-3.3,18h12.3l-2.2,12.7h-12.3l-3.3,19.1c-0.4,2-0.4,3.5-0.2,4.8
	c0.2,1.1,0.4,2.2,1.1,2.9c0.7,0.7,1.3,1.1,2.2,1.3s2,0.2,3.3,0.2c0.7,0,1.8,0,2.9,0s2.2-0.2,3.1-0.2l-2.4,13.2
	c-1.3,0.2-2.9,0.4-4.8,0.7s-4.2,0.2-6.8,0.2c-2,0-4.2-0.2-6.4-0.4c-2.2-0.2-4.2-1.1-5.7-2.2c-1.8-1.3-2.9-3.1-3.7-5.7
	c-0.9-2.6-0.9-6.1,0-10.5l4-23.1L292,312.3z"/>
<polygon class="st1" points="319.9,366.3 329.3,312.3 346.4,312.3 336.8,366.3 "/>
<path class="st1" d="M406.2,384.3l12.7-72H436l-1.3,7.7c1.8-2.4,4.4-4.6,7.7-6.4c3.3-1.8,7-2.6,11.4-2.6c3.5,0,6.8,0.7,9.7,2.2
	c2.9,1.5,5.3,3.5,7,5.9c2,2.4,3.1,5.5,4,9c0.7,3.5,0.7,7.2,0,11.2c-0.7,4-2,7.9-4,11.2c-2,3.5-4.2,6.4-7,9c-2.6,2.4-5.9,4.6-9.2,5.9
	c-3.3,1.5-6.8,2.2-10.3,2.2c-4.2,0-7.7-0.9-10.3-2.6s-4.6-4-5.5-6.4l-4.6,25.7C423.5,384.3,406.2,384.3,406.2,384.3z M431.2,339.3
	c-0.4,2-0.4,3.7,0,5.3c0.4,1.8,0.9,3.1,2,4.4c0.9,1.3,2,2.2,3.5,2.9c1.5,0.7,3.1,1.1,5,1.1c2,0,3.7-0.4,5.5-1.1
	c1.8-0.7,3.3-1.8,4.6-2.9c1.3-1.1,2.4-2.6,3.3-4.4s1.5-3.5,2-5.3c0.4-1.8,0.2-3.5,0-5.3c-0.4-1.8-0.9-3.1-2-4.4
	c-0.9-1.3-2-2.2-3.5-2.9c-1.5-0.7-3.1-1.1-5-1.1c-2,0-3.7,0.4-5.5,1.1c-1.8,0.7-3.3,1.8-4.6,2.9c-1.3,1.3-2.4,2.6-3.5,4.4
	C432.1,335.8,431.4,337.6,431.2,339.3"/>
<path class="st1" d="M479.9,339.3c0.7-4,2-7.5,4-11c2-3.5,4.4-6.4,7.5-9c3.1-2.6,6.6-4.6,10.5-6.1s8.3-2.4,13-2.4
	c4.8,0,8.8,0.7,12.3,2.4c3.5,1.5,6.1,3.5,8.3,6.1c2.2,2.6,3.5,5.5,4.4,9c0.7,3.5,0.7,7,0,11c-0.7,4-2,7.5-4,11c-2,3.5-4.4,6.4-7.5,9
	s-6.6,4.6-10.5,6.1s-8.3,2.2-13,2.2c-4.6,0-8.8-0.9-12.1-2.2c-3.3-1.5-6.1-3.5-8.3-6.1c-2.2-2.6-3.5-5.5-4.4-9
	C479.3,347,479.3,343.3,479.9,339.3 M497,339.3c-0.4,2-0.4,3.7,0,5.5c0.2,1.8,0.9,3.1,1.8,4.4c0.9,1.3,2,2.2,3.5,3.1
	c1.5,0.7,3.1,1.1,5,1.1s3.7-0.4,5.5-1.1c1.8-0.7,3.3-1.8,4.6-3.1s2.4-2.6,3.5-4.4c0.9-1.5,1.5-3.5,2-5.5c0.4-1.8,0.4-3.7,0-5.3
	c-0.4-1.8-0.9-3.1-1.8-4.4s-2-2.2-3.5-3.1c-1.5-0.7-3.3-1.1-5.3-1.1c-2,0-3.7,0.4-5.5,1.1c-1.8,0.7-3.3,1.8-4.6,3.1
	c-1.3,1.3-2.4,2.6-3.3,4.4C497.9,335.6,497.3,337.6,497,339.3"/>
<path class="st1" d="M591.2,312.3l3.1-18h17.1l-3.1,18h12.3l-2.2,12.7h-12.3l-3.3,19.1c-0.4,2-0.4,3.5-0.2,4.8
	c0.2,1.1,0.4,2.2,1.1,2.9c0.7,0.7,1.3,1.1,2.2,1.3c0.9,0.2,1.8,0.2,3.1,0.2c0.7,0,1.8,0,2.9,0c1.1,0,2.2-0.2,3.1-0.2l-2.4,13.2
	c-1.3,0.2-2.9,0.4-4.8,0.7c-2,0.2-4.2,0.2-6.8,0.2c-2,0-4.2-0.2-6.4-0.4c-2.2-0.2-4.2-1.1-5.7-2.2c-1.8-1.3-2.9-3.1-3.7-5.7
	c-0.9-2.6-0.9-6.1,0-10.5l4-23.1L591.2,312.3z"/>
<path class="st1" d="M409.5,306.4c-0.7-2.9-1.8-5.3-3.7-7.5c-1.8-2.2-4.4-4-7.2-5.3c-3.1-1.3-6.8-2-11-2c-3.3,0-6.8,0.4-10.1,1.3
	c-3.3,0.9-6.4,2.2-9,4c-2.6,1.8-5,4-7,6.8c-2,2.6-3.3,5.9-4,9.7c-0.7,3.5-0.4,6.8,0.4,9.2c0.9,2.4,2.4,4.6,4.4,6.4
	c2,1.8,4.4,3.3,7,4.4c2.6,1.1,5.5,2.4,8.6,3.5c1.5,0.7,2.9,1.1,4,1.8c1.3,0.7,2.2,1.1,3.1,2c0.7,0.7,1.3,1.5,1.8,2.4
	c0.4,0.9,0.4,2,0.2,3.3c-0.4,2.2-1.5,4-3.3,5.5c-1.8,1.3-4,2-6.6,2c-3.1,0-5.3-0.9-7-2.9c-1.5-2-2.2-4.8-1.5-8.3h-18.2
	c-0.7,4.2-0.7,7.9,0.2,11.2c0.9,3.3,2.4,6.1,4.4,8.3c2.2,2.2,4.8,4,7.9,5c3.3,1.1,6.8,1.8,11,1.8c4,0,7.7-0.4,11.2-1.5
	c3.5-1.1,6.8-2.6,9.4-4.6c2.9-2,5-4.6,7-7.5s3.1-6.1,3.7-9.9c0.7-3.7,0.4-7-0.7-9.7c-1.1-2.6-2.6-4.8-4.8-6.6
	c-2.2-1.8-4.6-3.3-7.5-4.6c-2.9-1.1-5.7-2.4-8.6-3.5c-2.9-1.1-5.3-2.4-6.6-3.7c-1.3-1.3-1.8-2.9-1.5-4.8c0.4-2,1.3-3.5,3.1-4.6
	c1.8-1.1,3.7-1.8,5.7-1.8c2.6,0,4.6,0.9,5.5,2.4c1.1,1.5,1.3,4,0.9,6.8H409C409.9,312.1,409.9,309.3,409.5,306.4"/>
<path class="st1" d="M584.9,311.5c-4,0-7.7,0.9-11,2.9c-3.3,2-5.7,4.2-7.5,6.8l1.5-8.8h-17.1l-9.4,54h17.1l3.7-21.1
	c1.1-6.6,3.5-11.4,6.8-14.1c3.3-2.9,7.5-4.2,12.3-4.2c0.9,0,1.5,0,2,0.2l2.9-15.8C585.5,311.5,585.1,311.5,584.9,311.5"/>
</svg>
